<svg xmlns="http://www.w3.org/2000/svg" width="1.5em" height="1.5em" viewBox="0 0 24 24">
	<path fill="white" d="M1 1h10v10H1zm2 2v6h6V3z" />
	<path fill="white" fill-rule="evenodd" d="M5 5h2v2H5z" />
	<path fill="white" d="M13 1h10v10H13zm2 2v6h6V3z" />
	<path fill="white" fill-rule="evenodd" d="M17 5h2v2h-2z" />
	<path fill="white" d="M1 13h10v10H1zm2 2v6h6v-6z" />
	<path fill="white" fill-rule="evenodd" d="M5 17h2v2H5z" />
	<path fill="white" d="M23 19h-4v4h-6V13h1h-1v6h2v2h2v-6h-2v-2h-1h3v2h2v2h2v-4h2zm0 2v2h-2v-2z" />
</svg>